{
	"asset":{
		"version":"2.0",
		"generator":"Maxon Cinema 4D 2025.3.1 (#200000219)"
	},
	"scenes":[{
		"nodes":[0,
		1]
	}],
	"nodes":[{
		"name":"equator",
		"mesh":0,
		"translation":[0.0,
		0.0,
		0.0],
		"rotation":[0.0,
		0.0,
		0.0,
		-1.0],
		"scale":[3.0,
		3.0,
		3.0]
	},
	{
		"name":"poles",
		"mesh":1,
		"translation":[0.0,
		0.0,
		0.0],
		"rotation":[0.0,
		0.0,
		0.0,
		-1.0],
		"scale":[3.0,
		3.0,
		3.0]
	}],
	"meshes":[{
		"name":"equator",
		"primitives":[{
			"attributes":{
				"POSITION":1,
				"NORMAL":2,
				"TEXCOORD_0":3
			},
			"indices":0
		}]
	},
	{
		"name":"poles",
		"primitives":[{
			"attributes":{
				"POSITION":5,
				"NORMAL":6,
				"TEXCOORD_0":7
			},
			"indices":4
		}]
	}],
	"accessors":[{
		"bufferView":0,
		"type":"SCALAR",
		"componentType":5123,
		"count":129504,
		"byteOffset":0,
		"min":[0],
		"max":[21944]
	},
	{
		"bufferView":1,
		"type":"VEC3",
		"componentType":5126,
		"count":21945,
		"byteOffset":0,
		"min":[-0.492933452129364,
		-0.2652963101863861,
		-0.4929070770740509],
		"max":[0.492933452129364,
		0.26221606135368349,
		0.4929070770740509]
	},
	{
		"bufferView":1,
		"type":"VEC3",
		"componentType":5126,
		"count":21945,
		"byteOffset":12,
		"min":[-0.9999994039535523,
		-0.638701856136322,
		-0.9999809265136719],
		"max":[0.9999970197677612,
		0.6390163898468018,
		0.999997615814209]
	},
	{
		"bufferView":1,
		"type":"VEC2",
		"componentType":5126,
		"count":21945,
		"byteOffset":24,
		"min":[0.0,
		0.0],
		"max":[1.0,
		1.0]
	},
	{
		"bufferView":2,
		"type":"SCALAR",
		"componentType":5123,
		"count":201324,
		"byteOffset":0,
		"min":[0],
		"max":[33839]
	},
	{
		"bufferView":3,
		"type":"VEC3",
		"componentType":5126,
		"count":33840,
		"byteOffset":0,
		"min":[-0.425734281539917,
		-0.49293750524520876,
		-0.42309612035751345],
		"max":[0.4295996427536011,
		0.49293750524520876,
		0.4219866096973419]
	},
	{
		"bufferView":3,
		"type":"VEC3",
		"componentType":5126,
		"count":33840,
		"byteOffset":12,
		"min":[-0.8868588805198669,
		-0.9999992847442627,
		-0.9033366441726685],
		"max":[0.8856198191642761,
		0.9999982118606567,
		0.9021559953689575]
	},
	{
		"bufferView":3,
		"type":"VEC2",
		"componentType":5126,
		"count":33840,
		"byteOffset":24,
		"min":[0.0003255498013459146,
		0.0003255498013459146],
		"max":[0.5215336084365845,
		0.9990243911743164]
	}],
	"bufferViews":[{
		"target":34963,
		"buffer":0,
		"byteOffset":0,
		"byteLength":259008
	},
	{
		"target":34962,
		"buffer":0,
		"byteOffset":259008,
		"byteLength":702240,
		"byteStride":32
	},
	{
		"target":34963,
		"buffer":1,
		"byteOffset":0,
		"byteLength":402648
	},
	{
		"target":34962,
		"buffer":1,
		"byteOffset":402648,
		"byteLength":1082880,
		"byteStride":32
	}],
	"buffers":[{
		"uri":"data:application/octet-stream;base64,",
		"byteLength":961248
	},
	{
		"uri":"data:application/octet-stream;base64,",
		"byteLength":1485528
	}]
}