{
	"asset":{
		"version":"2.0",
		"generator":"Maxon Cinema 4D 2025.3.1 (#200000219)"
	},
	"scenes":[{
		"nodes":[0,
		1]
	}],
	"buffers":[{
		"uri":"data:application/octet-stream;base64,",
		"byteLength":1902404
	},
	{
		"uri":"data:application/octet-stream;base64,",
		"byteLength":838748
	}],
	"nodes":[{
		"name":"poles",
		"mesh":0,
		"translation":[0.0,
		0.0,
		0.0],
		"rotation":[0.0,
		0.0,
		0.0,
		-1.0],
		"scale":[3.0,
		3.0,
		3.0]
	},
	{
		"name":"equator",
		"mesh":1,
		"translation":[0.0,
		0.0,
		0.0],
		"rotation":[0.0,
		0.0,
		0.0,
		-1.0],
		"scale":[3.0,
		3.0,
		3.0]
	}],
	"meshes":[{
		"name":"poles",
		"primitives":[{
			"attributes":{
				"POSITION":1,
				"NORMAL":2,
				"TEXCOORD_0":3
			},
			"indices":0
		}]
	},
	{
		"name":"equator",
		"primitives":[{
			"attributes":{
				"POSITION":5,
				"NORMAL":6,
				"TEXCOORD_0":7
			},
			"indices":4
		}]
	}],
	"accessors":[{
		"bufferView":0,
		"type":"SCALAR",
		"componentType":5123,
		"count":257154,
		"byteOffset":0,
		"min":[0],
		"max":[43377]
	},
	{
		"bufferView":1,
		"type":"VEC3",
		"componentType":5126,
		"count":43378,
		"byteOffset":0,
		"min":[-0.47126710414886477,
		-0.492949903011322,
		-0.4739813506603241],
		"max":[0.47126710414886477,
		0.492949903011322,
		0.4739813506603241]
	},
	{
		"bufferView":1,
		"type":"VEC3",
		"componentType":5126,
		"count":43378,
		"byteOffset":12,
		"min":[-0.9571291208267212,
		-1.0,
		-0.9896726608276367],
		"max":[0.9571291208267212,
		1.0,
		0.9896726608276367]
	},
	{
		"bufferView":1,
		"type":"VEC2",
		"componentType":5126,
		"count":43378,
		"byteOffset":24,
		"min":[0.05000000447034836,
		0.009611111134290696],
		"max":[0.98333340883255,
		0.8563889265060425]
	},
	{
		"bufferView":2,
		"type":"SCALAR",
		"componentType":5123,
		"count":111918,
		"byteOffset":0,
		"min":[0],
		"max":[19215]
	},
	{
		"bufferView":3,
		"type":"VEC3",
		"componentType":5126,
		"count":19216,
		"byteOffset":0,
		"min":[-0.492949903011322,
		-0.1452520191669464,
		-0.492949903011322],
		"max":[0.492949903011322,
		0.14547626674175263,
		0.492949903011322]
	},
	{
		"bufferView":3,
		"type":"VEC3",
		"componentType":5126,
		"count":19216,
		"byteOffset":12,
		"min":[-1.0,
		-0.41994553804397585,
		-1.0],
		"max":[1.0,
		0.41994553804397585,
		1.0]
	},
	{
		"bufferView":3,
		"type":"VEC2",
		"componentType":5126,
		"count":19216,
		"byteOffset":24,
		"min":[0.0,
		0.0],
		"max":[1.0,
		1.0]
	}],
	"bufferViews":[{
		"buffer":0,
		"byteOffset":0,
		"byteLength":514308,
		"target":34963
	},
	{
		"buffer":0,
		"byteOffset":514308,
		"byteLength":1388096,
		"target":34962,
		"byteStride":32
	},
	{
		"buffer":1,
		"byteOffset":0,
		"byteLength":223836,
		"target":34963
	},
	{
		"buffer":1,
		"byteOffset":223836,
		"byteLength":614912,
		"target":34962,
		"byteStride":32
	}]
}