{
	"asset":{
		"version":"2.0",
		"generator":"Maxon Cinema 4D 2025.3.1 (#200000219)"
	},
	"scenes":[{
		"nodes":[0,
		1]
	}],
	"nodes":[{
		"name":"poles",
		"mesh":0,
		"translation":[-0.00000705719003235572,
		-0.0000020217894416418859,
		-0.0000040435788832837719],
		"rotation":[0.0,
		0.0,
		0.0,
		-1.0],
		"scale":[3.0,
		3.0,
		3.0]
	},
	{
		"name":"equator",
		"mesh":1,
		"translation":[-0.00000705719003235572,
		-0.0000020217894416418859,
		-0.0000040435788832837719],
		"rotation":[0.0,
		0.0,
		0.0,
		-1.0],
		"scale":[3.0,
		3.0,
		3.0]
	}],
	"meshes":[{
		"name":"poles",
		"primitives":[{
			"attributes":{
				"POSITION":1,
				"NORMAL":2,
				"TEXCOORD_0":3
			},
			"indices":0
		}]
	},
	{
		"name":"equator",
		"primitives":[{
			"attributes":{
				"POSITION":5,
				"NORMAL":6,
				"TEXCOORD_0":7
			},
			"indices":4
		}]
	}],
	"accessors":[{
		"bufferView":0,
		"type":"SCALAR",
		"componentType":5123,
		"count":191100,
		"byteOffset":0,
		"min":[0],
		"max":[32365]
	},
	{
		"bufferView":1,
		"type":"VEC3",
		"componentType":5126,
		"count":32366,
		"byteOffset":0,
		"min":[-0.4150426387786865,
		-0.4929354786872864,
		-0.41175976395606997],
		"max":[0.41919150948524477,
		0.4929395318031311,
		0.41085854172706606]
	},
	{
		"bufferView":1,
		"type":"VEC3",
		"componentType":5126,
		"count":32366,
		"byteOffset":12,
		"min":[-0.8868588805198669,
		-0.9999992847442627,
		-0.8982090353965759],
		"max":[0.8856198191642761,
		0.9999982118606567,
		0.8998655080795288]
	},
	{
		"bufferView":1,
		"type":"VEC2",
		"componentType":5126,
		"count":32366,
		"byteOffset":24,
		"min":[-0.19452498853206635,
		0.8897360563278198],
		"max":[-0.051468655467033389,
		0.9897359609603882]
	},
	{
		"bufferView":2,
		"type":"SCALAR",
		"componentType":5123,
		"count":139728,
		"byteOffset":0,
		"min":[0],
		"max":[23654]
	},
	{
		"bufferView":3,
		"type":"VEC3",
		"componentType":5126,
		"count":23655,
		"byteOffset":0,
		"min":[-0.4929264187812805,
		-0.28334206342697146,
		-0.4929030239582062],
		"max":[0.4929405152797699,
		0.2803378403186798,
		0.49291110038757326]
	},
	{
		"bufferView":3,
		"type":"VEC3",
		"componentType":5126,
		"count":23655,
		"byteOffset":12,
		"min":[-0.9999994039535523,
		-0.6730178594589233,
		-0.9999809265136719],
		"max":[0.9999970197677612,
		0.6354011297225952,
		0.999997615814209]
	},
	{
		"bufferView":3,
		"type":"VEC2",
		"componentType":5126,
		"count":23655,
		"byteOffset":24,
		"min":[0.0,
		0.0],
		"max":[1.0,
		1.0]
	}],
	"bufferViews":[{
		"target":34963,
		"buffer":0,
		"byteOffset":0,
		"byteLength":382200
	},
	{
		"target":34962,
		"buffer":0,
		"byteOffset":382200,
		"byteLength":1035712,
		"byteStride":32
	},
	{
		"target":34963,
		"buffer":1,
		"byteOffset":0,
		"byteLength":279456
	},
	{
		"target":34962,
		"buffer":1,
		"byteOffset":279456,
		"byteLength":756960,
		"byteStride":32
	}],
	"buffers":[{
		"uri":"data:application/octet-stream;base64,",
		"byteLength":1417912
	},
	{
		"uri":"data:application/octet-stream;base64,",
		"byteLength":1036416
	}]
}